# xmcd
#
# Track frame offsets:
#	150
#	11380
#	25588
#	40941
#	61729
#	73743
#	86421
#	103240
#	111950
#	123255
#	135436
#	146940
#	159576
#	169252
#	181471
#
# Disc length: 2964 seconds
#
# Revision: 1
# Processed by: cddbd v1.5.2PL0 Copyright (c) Steve Scherf et al.
# Submitted via: EZCDAudioConverter 2.1.7.1
#
DISCID=c90b920f
DTITLE=V/A - Dylan's Scene
DYEAR=1900
DGENRE=MOJO
TTITLE0=John Lee Hooker - Boom Boom
TTITLE1=Joan Baez - There But For Fortune
TTITLE2=Eric Andersen - Close The Door Lightly When You Go
TTITLE3=Pete Seeger - We Shall Overcome
TTITLE4=Karen Dalton - Same Old Man
TTITLE5=New Lost City Ramblers - Tom Dooley
TTITLE6=Mimi and Richard Fariña - Celebration For A Grey Day
TTITLE7=Mark Spoelstra - Sugar Babe, It's All Over Now
TTITLE8=Dave Van Ronk - Hesitation Blues
TTITLE9=Foc'sle Singers - Rio Grande
TTITLE10=Kenneth Patchen - State Of The Nation
TTITLE11=Bukka White - Fixin' To Die Blues
TTITLE12=Lightnin' Hopkins - Coffee House Blues
TTITLE13=Clancy Brothers - The Wild Colonial Boy
TTITLE14=Allen Ginsberg - Auto Poesy To Nebraska
EXTD=
EXTT0=
EXTT1=
EXTT2=
EXTT3=
EXTT4=
EXTT5=
EXTT6=
EXTT7=
EXTT8=
EXTT9=
EXTT10=
EXTT11=
EXTT12=
EXTT13=
EXTT14=
PLAYORDER=
